<mxfile host="www.draw.io" modified="2019-12-24T07:20:58.499Z" agent="Mozilla/5.0 (Windows NT 6.1; Win64; x64) AppleWebKit/537.36 (KHTML, like Gecko) Chrome/77.0.3865.90 Safari/537.36" etag="KO3d3PfpvfJoZEP2ghcm" version="12.4.3" type="github" pages="1">
  <diagram id="bEp1QsgM6hos_7su_FnQ" name="第 1 页">
    <mxGraphModel dx="854" dy="478" grid="1" gridSize="10" guides="1" tooltips="1" connect="1" arrows="1" fold="1" page="1" pageScale="1" pageWidth="1169" pageHeight="827" math="0" shadow="0">
      <root>
        <mxCell id="0"/>
        <mxCell id="1" parent="0"/>
        <mxCell id="6lgJhgc5zSghXeEzX93S-6" style="edgeStyle=orthogonalEdgeStyle;rounded=0;orthogonalLoop=1;jettySize=auto;html=1;" edge="1" parent="1" source="6lgJhgc5zSghXeEzX93S-1" target="6lgJhgc5zSghXeEzX93S-2">
          <mxGeometry relative="1" as="geometry"/>
        </mxCell>
        <mxCell id="6lgJhgc5zSghXeEzX93S-1" value="原材料供应商" style="shape=image;verticalLabelPosition=bottom;labelBackgroundColor=#ffffff;verticalAlign=top;aspect=fixed;imageAspect=0;image=data:image/png,iVBORw0KGgoAAAANSUhEUgAAADoAAAA8CAYAAAA34qk1AAAR70lEQVRoBd1bB1xUx9b/LyzLIoKNDhawIGIhokYiKooaNXaN2LEDviSKHSUqGjVEEbtBNBoVu8YWO1FEiV1Roig+FLHROyxs+74z++5yd9kVMC957zm/33KnnDllTpkzcy8C9x9vK/GRl9t+7hCSjFT5WEu7iDtMNIOPVUBtuT5Y0MLCQpw4cQLdunVDZGSkNt7/ujYz3epydf/+fRjnJKB7czt4bZgJaf5bLPAbgmYeAzB+/Pjqovtb4D9IowkxR+DY3A3Glk0hqucIYY26mD6oNZqWxKK0tPRvYby6RKotaFlZGXp3aQsDkSkMTMwhEIoBAyH7NbIyRXR0dHV5+Fvgqy3oo0ePYCSQQ1FWBHlRNntCIQP9lAo5EhISqsQ44enX53MMH/wFpkyZUqU5fwao2j4qEokgy82GIOs506ZSJoGsMB1yST4UpUVo0qRJpfyEh4fDt5crDmxcCFlBOmTF2di9bDx85m0F4f8rSpU0evPmTcybN4/Rb9GiBU5cvIHSjGcoy0xiT2neW8bwu7Q0eHh4VMqnq6UCplZOEFk0gdDMivl4r3aNMGbMmErnfijAewXNzs7GuDGj0KKRKYIDR+De1UMIDAzEZ/2nIe/BXUjSElGa+QxlWc9x6Fwqbhr1hoHBe1Hi2bNn6OjWjPErIN/mlZZ1CiCVSnk9/76qXq4o6AwaOBBbN65QU3NsYIshPV2wacfPyEoxguRGEmS5mShLTkNsTg0M/XI4atWqpYbXVXn58iWUslKVjxdnQyEtZb5N/m1uDBDdv6JUELR/d09ICtNQVpKFqKhd6NprGF6mvlbTdnVugOCArnjhYo9FKSLktg+C1Gc9du/bgx07tleqUU9PT+bTZAWlGUmQ5b9hZi+X5CHxXSlkMpmalr4KLYbPkP74Psgfq4OmMCvTB8v1qwWlTGdEX28cPLwTcTHn0d27N4oLs3Di+FFY2DXFuojD2BF1nJuHrh2aYNX8/jDJvYhli+ew/lmBM3Dr5nUQLq6QBmcH/gOzpvvh3bt3LNjsOnEVpWT2aYnM7KW5qSA/r9ukY6XBiIR8/Ntu7AgPxjf+EzBl5BdY0M8Ovr6+IFfTVwR0enG7GIIprmZwm70KirJiyMoKoVRIUVyQja79/BF/7zpKJFKUSRUYO3YsFgcORWOHWlAopJCXFSH34nksiSlE+NYdsLaxRtiadWjUqBHEQhn69urC8CmkRZAU5eHIqSswrOGA9smnYdnWlpmwQlaKRUcLERr5E2xtbfXxyvpJoM1L/CC2bg6lXMZihOT1feS/SsDcqKc4dPKixnxK6unQwjSaU1AE4+xU5Cdc1wAyNhbhl5+Xos0nHoiNjWVjB/ZHYWLgWqRn5rF20f0HUIiyIBSU+1fz5s7Yvm0rvujjrYHPyEgInwGeePzwd5TZd0TJ78koffgGkmQrpBZJKjV7QmYgLYDAwBACoTEERsYq/AZCGBkK0KCOoQY9foMJalFTjBYrDkJkaYPHi8ZB8i5VDWNlWQdXjq1Ah8YydPbshPy8HJw9ex7WzXsjbMdNSI0ewaCeAGZCJZKTk+HeqhX69vLEzp078PCPJAwfG4DYuFtqfFQJ+qo/7DrZYHGGJQR+W6Ec/RXOnj6BhQsWaMDpajSzrwN5Sb7K5HNSoSjJY/s35DLUr22AoqIiXdNUGrWqYw6FTIIjv91Dk6C1UCpLkLptJbIvntCYdOngQhQkH8eAvp+z6Lp8xTI2HnvXAJ84O6JdM0vcunGe+fismTPg6uqCyK0R6OjZE537TMTLV+/U+IyMDPHDTE8kXt2KZYvmsGi7adN6zJgxQw2jqxKXmA7yac7H6UAhL84GBbNr/5ToDWZMo1aWFpBLi5CYlILUpDOIPJWAjLZ9UaO9G17vWI+C+3eglMmRtu0nKJ+dQsKTZA0eOpvVwpjJk2FqZc/627u3QuSauVi5bCG6dOkKE7ERjh07joYunth+5BZWbT6snt+yvhmC3JQYMGgY6wv9fgUiIiLU47NnfoWYc3vVwSw0NJRpkxIW1S8JZTmp2PxbGkZO+homJibqufwK27Hr1bNgQYUG6lrWhL+vGdvfTp17jh6D+kFWkoM3ERsh+tRIPbeZcyu0aypGyDh7NP92N1uo14c3w9DYGHW79WdwM/y+xDdTBuLO5SiEhB/D0aMHMGLkGNSpJUZQ0LeYVOMpDJuVAbYCAGI1boEA6NGjG6ZNnYClC7+BXFoIt5aNUZofj9DQvchMT8OGHmYQWpuyYFZ25x2mLoxEDfNaeqM206jI2BhKSszJ2YVCxiwx3NOjppo4v2JuKkLkdAcmJPVThKZiM8AXJalJyL0VwwdHE0c7+A5xR2DgbCikhcjIKsIPocth4FgGFsV40AX/TEBDu3rYtH4VIiJ38kYACmbz/XuikVNjKHOsUHz0KSQ3FKjXfwYgNIKx8b+Ck8YsVYMJatfIiWmEukhQkbk5DMViCPSkc1fXt4WdRTlSubRYvVB2o7+CaYvmeL4mCNKsDDXJbp+1xCL/T1GQfIz5OGlNYEKaLC8Lxw3G0Stx6NS5E8zMLbB/3y6sCIvExUtxaiDLeuZYFNAJp2saYoWpExzX/oSaXXvB1ESEkJAlajjtCjPd+o2dIZc+Z2MKuRzSggLIZXTsUmjDa7SPX8vAwE6W6kXiBs/dzIakjS8sDYuQceQ4xLYOEIiEyL8bA6GTQQUfj71lgNFfdMWYKROYC/n5+eHq73eR+McdTPULQB1zMS5djkFczDnMnjaEkRn6eSsM7iHFhQPLkSZrgjGjR+GH0JUIWbIEi5dUFJhptL5LGxZ1pwxtiVMXM1Can68SViLheNd4+ixPgqjjBsxed431U9Jw/UEa3uQaIyFFhiFDhsDZ2QUppa2Q3iEAho1qo7jkKoQuhoCxSose7duwud/sFqNz7VoY1rd8z928JhjxsfuReOccOnfuDIrQn3XyxPS5IRg1LQypb8otxbW+Gdo936fmb/78ufD391e3uQrTKKVmG0L3om1re/Txbodzv6UhI6cAAzsoIDLlQMufj5Oz0LBBfdaR+1IIB1kJnjx5wk4e3b0+A0XGwOkBEInNsXdvFBydyudS7cH2jhodzsE72UI/ChqOpvM3QnUJCzRwsMat8+vx8GoUwn48Du8+Q7F7927I5TL06t4NUUNdYOCYC4PGmi4wePBgDfzUYBq1sbFBwzZuiL2ZjPjrD9HdvR66fmKLG4/lFSZod2yJrwWlvAw1xQIUFxcDSjnLddPSVXmnWKw73PPxcIHQaf56JH3/D/4Qq9e3s8CaxWNx8fRBnDhxjGVGfyS9hMAht0Iwk8mVaNOmDSRa1sgEJWxTZy1F0IZdcBs0D/OWHMbh3Wfg2dZOHWS0qcffvY+36YXYsjMKclkJ7Bs2Q/fu3ZHyKhNLQ4IZM5SAd+nSRXuquh245QWr0x6ukJdiS1Q03vVbjCMHfkV8+FKNYEaAqxcOh3t8FPNZamsHM4VSJY6pqSlOnz6tpkMVjZOvtbU1G9xz8gIUCgUiQmajMOMZhvmobvKLi4Dw08ZIOTQDtdqUm1/0L+fh6uGOtWuiUd/GDG069MS12CuQSIpga98QXRpp0AT5+C8nzyJ6Unt4eTWHQlrMACgrOrAnAoPGz4CZ2bfYsGEDujzdB7spASi8fw9Fqbdg1E53PquAZv+bN280iGoIyh+hm4KAkDXIy8vDrJH9kSIxw/pun2LVuCzwX9bs2bMH1+PTcS5uLyzMROg7eAjuPrmEzMxsBAx1hEKWA5lWTOP7ONGUS0sYaWK1/5CxzN+PHj3K+izGDsObiE0sWRHWVwkTHPwtjn+nCmYcz3SONTQsF5ZuMvhFbbr8Tn6dbgw6DBoDG2sLZCrMseBUAR6IvREfH8+ykAkTJmBL5E549POBwqYF9kbdwtsH9+E30AYKmUoAPj6ufvdaDO7Hqo5UdISjHxWxWAxXV1cOTOfTt/VDONpW9H2lslwFpFF+W69G+RSmTp2KAQMGYPHixcjJK0TPnj2ZacvlcpZEC4VCjBw5kvXRvPB503D72h9w93Dmo1HXLeuY4V3yS3iP+pz1KeR/zfUJ8ceVSjXKAVJkpmS7QYMGXBd75uTkaLSpERi6GSYthmLusjOIjCg/CO84Y4T1x0S4tWUcvEeV3+WS5t+nfW0C64+no/UkzbMzwZAG+VqkOMOVKmmUA6ankVF5Yk/t9PR0WFpa8kFYnfr2n1bd2vv394KTnRXmjHWBrCgLdfuFsvAfFxcHE0Mg+th5ePXthHv37rGtoQIyrY4NUXHYZmaj7n36XICGPLPlBvg+W2WNcpNJs1yh1ePuafgrSeN2dnYcGPyXrUVpHQfM2P0UC8+UIiUlhSUXiYmJCN/0Iw7eTEdQ8M8Qp0fj0K41zP9psqFh5ex9d9gEPWafUWuT+Dhw4ACCg4PV9KlSOSYNcID2KH6pyj2sm5sbnNt2xdAvR7BkonHjxuzgfvv2bTg4OGDy5MmoaWOHFVui4dFUhKQH0aCk/7OW5nxSGnVbq9r47pAYYRvLz64k5KVLl9CuXTvQVsm/Y6626fIFJcRpaWkaDFCDzLlmTc0j3vDhwxnc5cuX1fAcDCUVlNOST2W+eo6zYYEY0cMJrR0t1LD8SsD4yXj8VJVscP07d+5kF3JeXl6Mfo0aNSCg1fpXqbZG7e1Vtwg0nwTVpVESVF/hLxQxo10sHBxhVM8eDbymYd5355D5tnwhKZjlpBhh7fY96mkxMTHMFWibIyGpEH2+Nqmv2oLyfZQQ6Iq6r169YgR1/albt666m8vEqIMWjSuvX79mPk7BrKROb8xPMsOZm9aY69sZtes7MrBt27axm0lvb284Oqr6uPkkKF+b1F9tQTlz4xjjTJdrE9KMjIwKhDgmrKysuCpq166trvMr/Cju2b0nfCdOQkyqFCPD4uDos5HdJNCZlV49coVPn3jS1mi1fZQTlCPAPWkFOWKkZW1CHBz/taD2VsXBaD9Hjx6NgQMHskBGuLnFunNH9cWJNnxubm4F+tXWKGe6nFC6NEqmw9/D+IzwtVUVjdJcWkQzMzN2i893FX2LritGVFvQs2fPMr45QXUh1eUjnLDcQlGbr11unJ78PZjfT3XuvQ7R1xXMCEbXQldLUPoahd6GVVZ0EeLmcIISo5wJ0hi3cFS3sNC9rdAYX6P8YMbhpycFM+1SZUHpuoVeAJEWKFmm3/79+/Hrr79q42RtfT7KRV1tQflIyLz1mT7fVd5n+trzqywopVQck3T2O3LkCBOWz2BV6py5aod//lw6Guob5+/bVQ1mhLvKgnIrSYRIaDqW0SZNhX8corHVq1fz+dao08UZFcqC+KbLB3qfRvm59fs0ysdH9SoLevLkSWRlZcHHx0fjhEGCk9/QJzRXrlzBggUL2AZOUVK7bN++XePttL43X+8TlFtwws1ZhzYdXcGsyoISMgokp06dYgdvyi3ppo0O5aTRdevWoUOHDsyPORPnM7By5Ur2Epn6aHHy8/PVJx8+HFfX5+N8QfVZhK5gVi1BOSbo8E0CEjNr165l51EKVPqiIN0G0hUkFTLZkpIS9i7VyUl14csdkOluePny5RwZnU9+1NUnKH+v5pB8kKA0maIaBQ3atM3N9R+nCJZM7OHDhzh//jzTJt2ku7urbhbJGigC05ZE+St93kNFn0Zp0SorxJd2qXYKqI1Aly9qw1CbPsiiDyIpPeNOMKTJvXv34urVq1i1ahVCQkJYZNf3Voxu9g4fLn+3ymmUvwcTLV0a/dOC6hJKXx8JQOa9a9cudv+UmZmJiRMnsjyWFkxfSkf4KNrSfILhTJ2uXtq3b1+B3H9cUD5HdPrgtiXtzZ0PR/Vp06YhICAAzs7OTEgyX9qm5s6dqw2qt/3BPqoXYzUGSMDKhCR0FGldXFwYZorYL168wMyZM3VuLzdu3NDJwX9UUJ0c6ejctGkTwsLCWDD7+uuv2T0T5+eUpZGP0vY1Z84ctGrVSgcGrXcvOiH+Czpp/6ZgRq9HLly4wIIZCUdC7tu3j/nu9OnTGae0h+sKZn9rMPqza0bbBiUmdF1K3+736NGDBTPaiigC68uPie7/lKDcQjVs2JBda1Y1mKkF5f4JhkP0MT4FSu3d9mOU8v9l+j+SWXVK2yo0HAAAAABJRU5ErkJggg==;dashed=1;" vertex="1" parent="1">
          <mxGeometry x="80" y="120" width="38" height="39.31" as="geometry"/>
        </mxCell>
        <mxCell id="6lgJhgc5zSghXeEzX93S-7" style="edgeStyle=orthogonalEdgeStyle;rounded=0;orthogonalLoop=1;jettySize=auto;html=1;" edge="1" parent="1" source="6lgJhgc5zSghXeEzX93S-2" target="6lgJhgc5zSghXeEzX93S-3">
          <mxGeometry relative="1" as="geometry"/>
        </mxCell>
        <mxCell id="6lgJhgc5zSghXeEzX93S-2" value="制造商" style="shape=image;verticalLabelPosition=bottom;labelBackgroundColor=#ffffff;verticalAlign=top;aspect=fixed;imageAspect=0;image=data:image/png,iVBORw0KGgoAAAANSUhEUgAAAC8AAAA5CAYAAACmqHIqAAAKs0lEQVRoBc2aeWyNbxbHz21vVam99lh+ttiKIvZQuyBM0VhnUC1iyYTJGInIjPhDRggSQvyCIPalCGKpvREk9lJ7bWOvoVS11d7J59TT3Nu79L1tp34nefq+91nPc873LM/zVhwWKCEhwRETE2OhZ+l2EV/LLVu2zBEVFeVIS0vTcuTIEUd0dLQjNTXV17BSa7OxknigU6dOyYULFyQ2NlYqV67s0mPcuHHSv39/mT17tkt9af9wY3758uVSo0YNGTFiRKG8wLzNZpMNGzYU2vf/0cGFeRhu06aNzJs3z/JaJ0+elFu3bsnMmTOlatWqlseVSEdgA663bt3qyMjIKHJJSUlxjB071pGYmFhqmA9MTk7+1+rVq6V9+/bFEkZoaKjUrFlT1q1bJ127dpUKFSoUaz4rgwPevXsnb9++lV27dkl2drZiGBwXpcD0pk2bpFy5crJw4UIr6xerj53RzZs317J9+3bVQIsWLYo16dWrV6Vp06aSm5srAQEBxZrL12Bl/vv37xIYGCi4QGjPnj1SrVo16du3r6+xbm07duxQ7ZkGNFq7dm3zs8SfKhbwCkx+/PihC4waNUrCwsLk+vXrlqDE5okJwK40SSVPnCpfvryum5mZKVlZWdK6dWvd0KdPn+Ty5cvSqVMnqV69ugtvb968kePHjxOlXepL64dKPiMjQ9LT03XN4OBg+fjxo3z+/Fl/E10bN24sJ06cECRsDJn3Y8eO/TLGYU4lX6ZMGWWUDWBkeCACD9pAAzDfpEkT1cjRo0fVO+mAEviDnSCEzZs3+z2bSh6GIbvdLmykVq1aWtgMkHn9+rXimTZympKi/fv3y8WLFyU6OlqmTJkir1698mtqlXxISIiq/9u3b7oBcpt+/foJ+H/06JGcOXNGJzUu1a8VCnRGc+RCpBMDBgzQQpfIyEgBvqQotFnxdMo8g8EyeIdhNAAhaRhm0ocPH+oTFVulffv2yePHj7V727Zt9YmkkXLnzp3dpiG4LViwQFatWiXEmjp16rj1ca6wRUZGOg4dOqRYr1ixom7ixo0buol27drl9wVawAdbSE1Nza93fulS5or81r6xc5W+p2cGysUXTSQiIkJdsFsHDxV4uZUrV8rw4cOle/fuHnqIKOaRcFBQkHz58kWZxl8nJSUpZIzvJ1KSu/Tp08dtoiDJknB7kvwW0SCvzR4q8rPc/E9lOfekgcIDV2u8VWHPKlWqyKJFi2TNmjVeUw3Fh4mwwAZq1qyZoIXExES5dOmS1KtXT9MGki0DKecdjOrwTMQW6lwlYrPLsaQwGTx4sES4tvj1a+PGjdp/1qxZkpaWJlu2bMkfr5KHUSRrpMwmwBtqLlu2rLx48UIOHz6smPcnIGE/uN3CpGylnUPShAkTZPHixcoHO1DJg2eMBQIyaAIYtWzZUg2WgIUdpKSkyLVr1/J3bl7sIcnyI+fPIrkPTJU+hwwZokJhLFGbgw7CKCr16NFD7Q5t4gFV8rhIPAoE0/h36pAICRtw6datm2BEnsiWeV+CAn4XkUYiT+66dWnVqpUKBL9e1LQbZ0HCaNChXpGVMFgIpoEFMMGrkFkiLTJDNkV+06FDB53EjcPs1xIcEi8SHia2kBwRe03JDg7WxViQzQNNcEs+BCTr16/vNk3BCrR9/vz5gtWqSbcIC5NklNgBLhH1sCASMxHYbSYPFTbJyzBJMYBkTk6OlkqVKsnQoUPVEbAJXwQaPDFuxijmibBMDtZhEGMdNmyYfP36Ve7cuaPGygCkRY5jlVAtWGd+hIFWkSTCGTlypMLyypUr8uDBAxkzZkw+AoDngQMHCk368kKpiGIb+LAg0oeQWseOHRVO5B1km9wW+EvYD3NhP2gS18uR0UCRYEiChnAgTmJWSJknOOFxMEwOJrdv31apcJRjQQIT7cnJyX5llM4uEKEwB+kGqcbu3bvV8wAhNjFx4kSdm9zHKinzQAVjAmPAB8MFLmSUQIikiXa8Bu5z27ZtluZHkyZfwmgRBAZPefnypdy8eVP27t2rc5GkASd/SA0WXBqDZDGSIqNC4IJvR/UQ0rRKSBpiTjaPYCDmqFu3rqYMxu/fv39f0xPtYPGPSh4PAAEfjIoJkTLGiRZQ5b179/RGgEWtEgJBMGgWzEOcyHC/5C5savTo0epOsQX6+kMqeRPywTwTMgl1qJ2N9erVSy9baT979qw/8+dLHEgyJzGEtBqhGM2wOaBphGh1AZU8zKJSDAfmCVBPnz6VgQMHKk7xDkgcBnCnd++6R1FPC4Jx5gUyMA7DhHYcQnx8vA5BMNgV2vYWwT3NTZ1KnhcWYhMG2wQmrjNwj0gIBtgYcPJEgQ1WulUjUcYwHuZZA3/fpUsXjd4MOHfunLpPvJE/9sRYu0kN9MfPE1R4eLgeujmkgFE0gpfBkJ37O3MbULGP/PfCLaky8C+Sm5rnjfAwYJ0NoAG0BvEbrdLOuQHXiU0V/A7gPL+n94C1a9dKXFycXjCZDkiARVExkMHwcGvPnz/3aVTpD5PkyT/jxFahp4gtDzJABcaROnOiUaRsNMntBBt59uyZWd7y096oUSNN8GGQkM3Bd/r06TqBMVbaMDQkR2bnjbKHLxAcaUb8VCk3/qRIWprCxRgrWjNBCFfMlQp5D+kDG/AXNvmYBxrr168XcwvmzCBtDRs2VJfHuzdikxRDzswgedrQJMRVYkJCgtoYtgaUzEWXGV/YU72N6cR9zZIlS9TASIzwCtOmTVOfjJo5HpIy+IqwxuCZE0lT0BhGywZ69uypy3GlYiIs9aQJGLM/lC9550Ewyv0J0pgxY4ZzU6GqNb6bQbwjfWDBE+xDvAMZTlowTj3u13njLot6+eGRedN3/vz5wumHg/ikSZP0CGbaeKKd06dPO1e5vAMToABTYJukj4yRVBsBUce5dPz48boBbMMfcoGNt4EYMREwKipKfTSLAym+fnDayvo0VLxZAkziEoEOmsQlEgA5L2A/tBMP8P1GM974KFhviXkGoV78PsRHAyBhUug1q2Ll+a6/y5TYOJf5gQfBCQbpj9vs3bu3RnBSYgh3jFcjwjKvP+QTNt4m4vLIME6fmX/9m/xp2GBZ/I/pcn7nvyX9Z35lDBaJmghrLq5MNslREM9TpAjrjUFf9UgS/DpT1x69hQLOSSnANpkjcQRGqQc6jAU+OATghD0BJfBf8OOF8/ye3i3DxtNgT3XgGOliCxgqBW9DPeXDhw/qPtkAhbsY4EKa8MuZNxvCCCGDdWCDBg4ePKj1ME1cQeIEQLJWbMQfKhLm/VnA9MXgwTUagYALBc2USIQ1C5XUk0814JrDNVJnA4MGDdLpMVKOfpxhgVOJRdiSYp7/CuGiNSYmxmVK4MF1BxEWwpjBPFrwh1z+68Ofgf72JRrv3LlTli5dqgbNeDaB90E7HErInXxFbNJpvrRMnjxZ+5Ya8zALtrkZw1j57mSYpw03igZIRzwRN83v37+XFStWaDNJXKky78zU1KlTlWHz8QAN4DJNvm/68psz7pw5c9TlctrC9UK/jHlcKLcIwGTu3LnqNp2ZByJIGwPn4xsulZMYkd3QL2PeMMCTwMVRlGSNK0UKXwSRMCkGDPMsSH8I5mGK60W+/gELXCvxACgRrb3RH4Z5wyBJHC7TGR6mreDzfzucfvyCaocdAAAAAElFTkSuQmCC;" vertex="1" parent="1">
          <mxGeometry x="240" y="118" width="37" height="44.87" as="geometry"/>
        </mxCell>
        <mxCell id="6lgJhgc5zSghXeEzX93S-8" style="edgeStyle=orthogonalEdgeStyle;rounded=0;orthogonalLoop=1;jettySize=auto;html=1;" edge="1" parent="1" source="6lgJhgc5zSghXeEzX93S-3" target="6lgJhgc5zSghXeEzX93S-4">
          <mxGeometry relative="1" as="geometry"/>
        </mxCell>
        <mxCell id="6lgJhgc5zSghXeEzX93S-3" value="批发商" style="shape=image;verticalLabelPosition=bottom;labelBackgroundColor=#ffffff;verticalAlign=top;aspect=fixed;imageAspect=0;image=data:image/png,iVBORw0KGgoAAAANSUhEUgAAADkAAAA5CAYAAACMGIOFAAAQ+klEQVRoBb1aCVzNaff/3t+9t32xpKRIaN5XC2KaLJOlQWRNlhllHSb7LmQZW7zZhrwyYykSY/9ryDCI8QrD2GJQUlSIlGmhe7vde/+f81y/626uqOZ8Pr+e53ee8yzfznnOOc/zuwKlUqnEP0gpR3ajtKQEAcPG/WOzcv/UTDHh3+HrQH+4/csUrb9wxKm4RVg6fhieP35Y40uocZAKWTnOxCzHa9lrrFgyQg3Iu4MPGjpYYOr4sZC8LlXza6IiqClzLUm/hu2rlsDZpzk6tG0OjhMDAg4CoRgCTgyBgAMnVPHyHj/Bppj9mDpnAT77vEO146w2kOfOncOpU6dw9epVWJqZgJOVoZ23C0IGf8nAGQOpAi3EuPFL0LJpI8zbGFetQKsMMjQ0FAqFAvFxsXj5v0Moyj4PC09PCIQilbbearAyIAWcCAJOiP9Grkfqo3zsPX66WsB+MsgXL14gKioKvr6+CA4Oxu15XWHq1ABWbX0AgbBKIEmzWXfvYcuWvQhfvAyNmreqEtiPBnnkyBHExcUhOjoaDjbmSFsTAgtvD5g4OjLN0Z6rDpBs/3JiSKUSTAwLR6/OHTAsfOkngf0o73rjxg0cOHAAs2bNAvdnIu4vGwibAD+IHew+afLKdDIzt8CqqAXIfJiOi0f3VaaLnkylNLl27VqUlZVhwoQJeLSkFwRCIWx6d1Jrjjwl7zGrW5MCjlN5Zk41R/KBvXjw4BHCFkbBzNJKD5AhhlGQAwcOhEgkQqNGjVhpbm6OwNxEmPiKIbslB2duDtvAr1Rg34aFmgap+oeKkJ+bg4Vz5iP2yElDuLR4Iq03jZeSkhK0aNECQUFB8PDwADmaly9fQroxkUmJWwohf1GOkrOXYPWlL4RmYo3eNV+1b9gY48O+RfiIYMxcugoOLk3fOynT5Js3b7Bs2TJcvnwZZ8+eRWJiIvbt24cdO3ZAKBRCIBCwAai8Ps6HaVJrRKkSFWkcrNu3halLo2p1PLrmymtSQB6crEcogvRNGb4d+jV2JZ5gFqe1NgDM8QwdOhSWlpbqtm3btmH27Nm4f/8+cnJyIJfL1W0GK6YCcC5yFF+4AEVJzaZouvOX5WbgyY7FyHsjR35+PovZujIMZFFRERYsWMDapFIpA1i7dm32XlxcjHv37jFzNXZg4Ww5iFsJUZx5DAVJP6P0xk3duar1XSGT4eKs/kgrrEDxl6PUYz9//hy01TRJK4SQkzl//jx8fHz0BDU7Ga2LBBC6KCFJS0V+fLxR0U9t/PvGeVydNwSmgxeBY95XC4besMzxmJiYYPny5Sz3JNP19PSEMa3pjWKAIWxOTAVeJG2DPE8Op++mGJD6OFb2zv8gJzMLdiNXwjpsY6U7M5AnT6rccNeuXeHg4PBegJ8CnHNUQmDH4emWaNi07Qjr1r6VXhwvqCh7jfzkw8ixaIJ6o8J4dqVLBnL9+vVISUnB8ePHmSclL2pvb89CBm3mTwGnuQKBGBB5c3gjvYCimN/hNGYWhObmmiIG66X3riH9QBysQpbBxHsQHAxKfZjJjJmOSRMnTtSTrlevHpo1a6bHrwpD1FKIJ1vWoDD5hNFhJDmZuH3sCMyCZsPUprb6n08KMPQYG4xpsm/fvqhTpw6ePn3KzFUsVgV20iDV3d3dWVpXVY3SQgQcIG4jhBTX8WjTnxCKLNBowiK2RoWkDK8unUGWxBYN/PrCeXSksbVXuo1LT0+HqakpTpw4AQoXmZmZBs2TUrrqJrEnB9Qrw9PdMVBIJLi9YTky8iRw6thPS1t0GH/y5IkWT1ebxtbGRUREICQkhO0/EqTAT3Hx7t27KC8vZ4BJg/xjbLBPaePqCqBwzEXWugi87hWOcnd/FhYoXl86dxiOlgUICWyGls7FsJVeQlpamjps8OGDSmPEjR49GklJSQZlHj58yLIIg401wHRzc4OTkxPGjh2D1BuXkFcoR7eg8Vozfe6cxyxOE+AHQQYGBsLOzg50jUEmoEmkPUrKSbMSiUSzqUbqTVyd4eXeBCePJiC471f4Nekomrt74pmkISLWHENxyRs2b73yZChTN2lp1NiCmOPZuXMnyPkkJyezjk2bNmUJgWY+m5WVxZyTscGq2jZ33iJ851oO55AZbKhjB2NwLOk09uzegfnz5yFy+QrUsyzB0H81hCznBmp5ayvlffMzkDKZDHv37kWnTp1A2c+tW7eQnZ2Nfv36sXe+c2FhIV+tsdJpyCSUlzxD8Z3LsGnRAb0C/BAgLcKrl5dx+eIFXL16AQ/294foMzCFVGYhbMc+fvwYlJBTSldQUMD60cYnT/tPk6JCtS0s3Nzx/PRuZK2fr1rC3eu4cz9DazmaHlarQeeFgSRhPjbyIEnuzp07aq+r7mdiAkVBzX0+kZUVQlEhZdNZtWgFuyHBeLR6Ecrkl2FjaYKhvX3US9F0PmqmgQoDaWFhgdLSUvaEh4ejcePGzExpEIqfK1asYIdn6i8e+yMEAVtQkd0A8oemBoasGksmKQQ9ctlrvYEuRLfGkuFOjJ/9Wo7h0ZOx4uf1qKio0JPVZDCQgwYNYufF3bt3M09qbW3NYiR5VDJbiqMElBIHnoQDvgfajYXisRhKGc+tWmkCOW6cv8Y0yWtTd8SrBRUIuVCC0RdL8VdOGkhBdItojNQXWXQFMnLkSBZOSIOUmNP9DjkjIjJp2rdz5swBOaqwsHenAWWFDIqEGRDUK4fwE7Po8j9kaLjsOJsrYcNKiFGOoCAPQCHH8+07AR8RAs8UG8Tiau2EtSMWIyYmhuXgXl5eIEXxxDRJL/Qf6dmzJ549ewZyRP7+/mqA1E7JOqV/dGIZO3Ys4uPjmSy1CURiCL+JAqzbV2m/8o5k2LQIeLX8HGeO/4Wyt9cpJpwAYp04zoPIKnmCZu6fISEhAStXrmQP38bWZ+yrFmmXQgrdGMiKC5Cc8COEFjboOnKyeowhQ4awW70+ffqoecqXOVCeXg2BowScZeViGWmy8Qr968U3fxfg6ZphKHPxhtfYSEzeGoEzt/6nnkuz4tagCVzybNk9z7p169i9lY2NDdTmqimsWw8N7ovaDnYQizgoFRUQPn+KNQd+U4vRrTqlgF26dAGfyCuyb0OZkgBh479B58kPEYF0XfluzPfJn0s5j/F7It7XjFU95qB79+7qdrJAlgyoOToV8rghQ4dg9KhhcG3iBkrml84cACd7WyyfPxaPcwsROWYYyHERkfyoUaPQsWNHUNZU6BGCzAfpaFx8D552ORA5CNhRS2ca9ev7clC6aDt06BDo5qJfYB/cLc3Exl+2qftpVoqsVOGHDv10nUpkVJPDh4Wipde/sf/g/+HXpEQUlUjQuXMn9OjSGoum9kZ65jNcS32EbhYcWs6NZQNSVkQfg8jUeaK93KI4FQ0VL2DpzXO1S9Jks1VntJkA8+50RdqhQwf20L6VyqQIjhyN6xmpevJdvDrgh1FLmQPlY7/a8ehKk+nNblCAieNG4MyxeJxITGAAL15Ixtzvf0D0nr8wae42dBNkYtrJLOaE6DqQDt9XrlyBs7Mzu7CmcSkM3bD0wGFzPxz9yxuxx01x64H+1JrBPTU1FYcPH2ZenWI3geRp4fyFwJ9F7NXOpg7PZuXZ2yl4WpjHkhg+furPpNHFdVIknp9OYJxeAR1x8/ddaP9lF+zeFYtJU6bj7sMn4FzeBUn6GEs5Lw1OnxgM0d9CK2SWmeP3e+bIK9B2Srx33bhxI27evMlORrVq1VIPQ9axZs0a2NraIjY2FqS1ge36YNGQmWoZqlQoVGuify6R0T0JEyFq+/qj7NUDlGbcxOvbt/DLqGbg7JNhIhwJGyszrcHphT4O0RGNQpEmEXAzMzN2ZKtjXx9LV6wAxdfj239A+Yur8IUMmzdvhre3N/s0qNmX7qC2bt2KqVOnYvjw4eqmuOnR+G9SLCb2/xZt3VpjxMYpKJGUIKXoHBrZDWPxnISNapJPlklQ7GAPaz9fleZMBRgQFIRtM93UE2pWXF1dWRaSm5vL4m3z5uwSVi1CZ1ciiq/DI6JQAFesy7YCHeDJaWkSfaagIE+JCY3L+gkEsLKyYp58RNchjOfq6ILJvcfAzFblbIj5QcdDe/Lg1nA2gEIuhbTkKeTSYhSnqb5qsYa3f6bsMsOePXvYm6OjIyspeyIPp0mU/NNJhy7GiCiGaZ5ZKZjTOPSQOb569YoBJwsgophNmQyVhkgiK0P7+C8wrs149HEIYv8IkjeqSUqS6aHYqEuJKfmYvvmRLlv9TnuJ7mNon1IOTHlvt27d1ABJUBMgvZOGDx48yH6DkJGRwT768gDJKdWtW/e9AKl/zM2N4N5uQNrfPOntyeXTw3DhbgZGDuqIrl1GIXx0APwHB/Ly6nLWhhQstK6PvCsuCOvvg8ED+iMowB8zFq9kMpT+8UQXYvwRjhbNf0zi2zVLSi/PnFGFEvoHkbMh0/wQtU/4HOVylaMhWfILPGmBpEBO++jA1kVQyCWwr22C5et2o3FTRzT2+ozvw8rCv8swMHgAfOZNg1IuwWtw2HXoPNr7nUDbr3poyZJ50T0SJfYEorJE2qsMwNv5qVoA+dDBz8NA+vn5wadNCzzJyUTtWrXxuMiW/bzk+4ldcGj7PFRIi9Gu70IEe9gjtGMtvHmmxLKkScjOeYbcEhukpmajlYcLevt7QVaehTGhgZC9FmDDtp2oVVf1owkKzHxw5ievallQ9hIB+7voDaN76Sbo3LmzckvMOjRytmdg9h/8BVK5CXoG9sb4cWGImNADjRtYIi09AxtW7UN/X3d8ExULpaIMf/xxFT/EJGD16v/g0OEk5GZcQ8SkblBWSDF+VjxMzSxx6JThZFpvZR/JKCkvYQA1TZSGEHMmWOu7Aa7WTdWOh2ky689zCO0dhbiDCRjYPwBySRGuXDsOD4/maNJ6IPy+8MHhuW6InOoCtwHbELc6ErI6DTA6NAjxm+ZDKc/HTz9twoRx3yGtsAkmjQrB/qVumLJLxOIlmR19LdOla3lXQY8xSn+VBgJEpGuWhvpN95zFAFIbb7YMZIeAbjjT3R+SohxEzZ4BUQM3jPi6O8xP74FTI9UPDjhrlbci0x02ZSLKS58h+UAczt7Nx5zJ32BHD0fYVvwG93bjcf8JXYa9i6HkQAwRAdxya7Ohpk/m+dXvzPqSd+WzJRZCKEzwgX/y3DA8vZGCO2sXw7aVKsJoZjYUM+khauvfHtzzdFyJnIu6bUwgdlZi1+59BjOhT171R3QkE+WJjnx8GGGapBsyTVqwZATyd+xj58DU7W01m1ChIzttTihebI9Xnxnbin/GhQ1V+y2c1oSVfFncOhJt7N7d5FF+yxNTFa8dpVI/6JOgZtDnEwQqDdGHkgRDfaqDpwlQNyMSxcesR/jsGRjSqxVa+Hrozdfi28uMF534b5iYmAEnYmEhlmP6rIF6ssSgJCHKsRl+/LUWouZPMihTncz4TntR2/TdcUvzsMzPI2rYvCUmTZ6GLT/9CHsHa9g7a+ebJNimVQsEDw5BS/9erN/v++OQdOAseg5oz4+jLtet3wwvTw8siFYdotUNNVCJbrdZCyAdzvmkXHM6vZuBuBURKHp+F+3KcrEuxxpfuDfD0FnvfoJZv3599Ya+duoofju4Bf7KZwZlaULdJF1zcs06/faGrk8+lig8UQ5sLDPSA0mTrJs9Dr9eS8P6VStRx8mFzUt2TpuZbu406afFM3Hw/HUtWWrXPWFo9jFUp/yWP+QaaicepYX0UEgicJQiEjjei76vn0GQmsJ8jKNBP0QkS4mxIZP5UN+abP9/ZgzFj4JvtWcAAAAASUVORK5CYII=;" vertex="1" parent="1">
          <mxGeometry x="400" y="116" width="47" height="47" as="geometry"/>
        </mxCell>
        <mxCell id="6lgJhgc5zSghXeEzX93S-9" style="edgeStyle=orthogonalEdgeStyle;rounded=0;orthogonalLoop=1;jettySize=auto;html=1;" edge="1" parent="1" source="6lgJhgc5zSghXeEzX93S-4" target="6lgJhgc5zSghXeEzX93S-5">
          <mxGeometry relative="1" as="geometry"/>
        </mxCell>
        <mxCell id="6lgJhgc5zSghXeEzX93S-4" value="零售商" style="shape=image;verticalLabelPosition=bottom;labelBackgroundColor=#ffffff;verticalAlign=top;aspect=fixed;imageAspect=0;image=data:image/png,iVBORw0KGgoAAAANSUhEUgAAADoAAAA5CAYAAABnLziGAAAM3ElEQVRoBc2aCXCURRaAHyGc4ZRLBbk8uG/FXcGSuyAIAltB5NgtWEAjSy2UoAUUoBayi4ZDZDmF4lqKQwFhA1RJCSVXkNPFCAgEkPsQBMKdSba+ju+nZ/LPzD+TZHdf1T/d03/36379zn79S9b/AQwYMCArOTk5X1ci+Yo9BPJz585lJSQkZG3evDnL5/OZp0uXLllJSUkhRkX/6n9C6MSJE7MgSgnUMj09PeuDDz4wxEdPkvvIAjRLHsGPP/4oixYtkkGDBskzzzxjsJ4/f14OHz5snm+//VZq1KghH330UdgZly5dKg8ePJDBgweH7eulQ54Rmp6eLiNHjpRevXrJwoUL5c6dO/Lrr79KbGyslCtXTqpUqSLPPfec9O3b18u6TJ8xY8bImTNnZNmyZZ7HBOuYa0KPHz8ua9askR49esiBAwekdu3aUqtWrWDzRdU+a9Ys2bp1q6xevTqq8QzKFaHz5s2TlJQUGThwoFy8eFE6d+4c9ULCDbxw4YKMHTtW3nvvPalXr1647jneR0XoiBEjpESJEvLuu+/Ktm3bpFWrVjkQ51fD3bt3zcZ+8cUXEU0RG0lvjMPixYulW7du0qxZM/npp5+kePHikaDIVd9r167Jvn375JdffpHMzEyJiYnxjM9TTyYYPXq0ID59+vQxRDLDiRMn5IUXXsBF5evz/fffG4OEYWvRooUh7tKlS56JpGNYQiFi2LBh0r59e6lUqZIf8lKlSuUrgcyN1GB5X3nlFb+5I/0TVnTbtGkjX331lRQqVCgHbkQItxIXF5fjXW4abt68Kfv37zdq8cQTTxgJgptAwYIFo0IdlqNgZWfRz0BAbPfs2ZOnXGWeDRs2SEZGhlSoUMFvSgwgUhQNhOWojfT+/ftSoEABh7tVq1aVxx9/XHbs2CFNmjSRokWL2t0jqqP/uKonn3zSuA/lIEjgapEiReTGjRty7969iPBqZ08c1c6UcBdiAV0Mi9uyZUvUiyA03L59u4mebBUBP3aB8vr1665SZa8tVD0ijioiOAsULlzY7PRTTz1lFom4nT592kRIFStWlKeffjqH+CkOSnwhOvfYY48ZydB3iCcx8e3bt+XKlStOKFmsWLGo3ZlnQiFCOagL8vl8hlj9TwmBrVu3Nq4ItwAnAnWNfhCAD7Y5SDubV6dOHcGlEW3Zc7Ih+M9owDOhRCQsGOJ41GETvJcsWdL8J4gHcOToFf0RdTaJ/jqO/xCqKsAY+hInnzp1Snbv3m0IROchvHr16oa7V69e9SM8EoI9E6pIETUejIKaelwMYgXBbAiERAIvvviilC5dWnbu3GlwYngA9LN8+fJGOtgkbYd4pIXN9AqeCYUIuAdxOiHcoo4u8UAgXGJxiCSuAk4yDr3mP2PYlKZNm5pjG+dVm4MsvEGDBkasjxw5YsI95kCE8deMXbdunZmrX79+0qlTJ+ndu3dYej0TCiYmY1LVEwhjd21g5xExAB1kY9CtQADXN998YzZANw5cnFnBm5qaaoaojoKLh3c8QFJSkjFoHPjr1q0bOIXf/7CnFwzL2rVrDTcCiYLLiDC7DGBA2AQWomUwHd27d6/hEITUrFnT+E6MD+Ee0kA7AQJ+mpJoiQ0Bn4LWKTdu3GiCiY4dO+prv9KzH0X0MA62AcHo8B8dffjwoZQtW9bsut8MYf6UKVPGiDGEpKWlOdICbtIxbObZs2eNaoRChQizecOHD3ft5pmjt27d8nMTcBKdYedZpHKOkna4j9jCXX3POx4kAHy4IvJJJ0+eNHjYSIwS+ot0EC2BnwiMcYCWdj2w7csvvzQByPz58x2iPeuo29kPIuCoEqST42YQXRbJIiCa8Sp6tCEFGCFwqI6in5UrV5ZDhw4ZVQmndw4VARWMIdJhQ0hCDx48aLjDALjEolg0RLTc1Ff2vLbKGBMI4j2Lh9MK1JUoxth+1NZR7AB6iXvhjNu8eXODwuaU4gxWojrkrmxAahB9wOhou3btZMqUKXYfs6Nk86ZPn+60QyhuBKQ2oL8gxWiQ8UM0bV22+9p1Qr2WLVsaA0TyK1qAe8nJySGHG45u3rzZyPTHH39sdhRRfPPNN2XSpElmsPpD/kAAnAkEOKYpDjgBsbiVYCeaRo0ayfr16828iC5SQQDARnkFDhKXL1/21N0RXbj0/PPPy8svv2wIefbZZx0EiCvc5PECbAT41AghlhBPu5aoBX0g0Abm0kjLzS7Qd/ny5VKtWjXPRDLGz72gG4gTXOPwawMLCjax3c+tTlhIdMSD6EOIxsVu/dkYNtVNchgPcEoKhCX/XBXY5Pw32/nGG2/IO++8I4RjHK0giEMu6QxEg3SmBtiMbDg3XgpXzM7+2RbXwZpHFQjlQS04BJBajRYMRxMTE2XUqFFmxzH5AP6MawSCAHT4hx9+cJ2DTcEIIXL5BcwBsW7w6YxHvrJfnwS3LqbNELpkyRJzJ4KDxoCgPxBMnfRifHy82dGVK1e6IsLpw30MiVtc6zooRCObRlwbClasWpvjdSjRNYQSofAAOG0MBiJLshjTjVVkR7G+4QBRBle4hQbiGZIywWnCXTEfOGy/rB1mzV2sVfnrX/7s1ENVYrgkGjdunOmz9HqyxB9NlMaNG8urr75qDrw4dp5IgA0iO4j4RwNq9Cg1arLxJA7+o7ye0M00Tfvsc+dVSNGFUODzmGQpeCObY10ODJKu3w00B1+CbqIV5biD1UPFS9DghgbD59WVuY13a4vZtGmTaV/WarKcae0fCHTf2t+8g1gOw927d3fDkedtmqVAhIOJrurosKEDnflD6mi4dMSKE4+Unng2L2FC5hJXdCq6BBR61g3sGLHo4jcVNtWYKRtqzdK/pnxQPEP+fvhTv7b8/oPvRHzRT7gKYCAV0NFIIYagOhDWN5nnNN2scEd+LnVRXl/Zx2nL68rw1E9cURIhqX/m0KCA1XUTXX3vVsaSqpg9e7b075+tj9ppXfNH1kzb/lslRowQkXOlgl2nTUVX39sld7dcKxL0d+3a1bwyfpRzIInmSIGYNTeQlZklY68/kh4bF6JLbOwGwUSXCI3rRRLghLRkCzW1YmJdbrH5ZGbGjBlueHO07em73LSVKJ2d3eObAi6avEKvlJEyIvZ1ybztfxrq8FlvOTRxi4OGoMGLi6pfv77JAqqY8+nO119/LVOnTjW4cFWGo/wbMmRI2MgHcdq9y58gPXbpTbSzyhCVrIzsuJVS6yG6h3xFFp8AR4lEOnFJnK0B9JyTl3MYpDNfmSAyPXv2dEVerHCMXLNEfObMf0hi4tvGIuIKSDhzjtVUCCegQOi+cUh2U1GRzLv+HOUF82N14YJtaW08iCh6yOUWgAqtWrXKRHIc6LnawBXad6kORxmA+B49etTGmaPerEljp63nH7rJvLlznP/EyYga9yfB4uLM+z7h+dvFhaakLr5HrgNkxMvKIQf5bxXa+VhEiaQZPcT3QiSA4bKJpM013Tl58mSzI4GWePasmdL/T31lx84UOf3zGendK/tYlOHzSWrqYVn3rw0yYcIEE5DDDT1azZ//udSpXUuuXLkqY4/6+2mzst9+Mq7dk2NTdtlNpo4vJVoiQlPAeL7//vvmOgIpYoMJUzXY0H5auhLKS45u7Jy9s2Qd0m/dlNe6xMvZc+clLe2kvPTS7yT2t+8K0I1Lly7LqZ/PKH4pERcnzZpmSwEb9Pa24N8B+m49kMx7Pjkx8ztnPBUVYTVMZPtIhqkeEljAwcC0jI0kKKF04rCN5Zo2bZpDMLqT9Mkn0qF9W6lXt7bBtXrtenOX2bLF782JpVrVbN3hJZxfvWadlClTWianLbXnzln3ZblyVDt++OGHJg/Fp0AAqUx0UTdA+7mVIQllALuJ7g4dOtQoOW3Hjh0zPiqhx2tSqVL2ORbxhWOcY48cPWbmgjiOavEd20v5cuWk3ugObmtw2o5PS3HqdgV959CPaJLAA4iBbVG2+7vVwxKqgyCY3BLfG9lfaHKdsGLFComLKy4YqvLly4nNUcT534dSZd/+g9KmbVtp2LCh1ByUvVhwp80LftblwmnOnDnC9SAXxegfFjeaw4VnQlkU9yEQpZaPSRW4utu1a5fxYaRkbMBYEK2o27HfBavjMviQiy/V1JpyMRzM2ATDo+0REaqD4C5ZubfeessQoBkKfZ+bEl/MB1wJCQlGNCEs8Iu1aPBHRahORI6VwHnBggXSoUOHHAcD7ee1JARF/8ePH2+GqJhGy0V73lwRaiMimiEbyMfJxJpEJ2QPOR1RdwPCNZJvuAuCcdV9MoluuSI3HF7b8oxQJkSkce7cwSCCcJtrfqItxE9FEGePoUFniXC4xCXjh5uAi7bueyUkXL88JTTYZLgHzRSYk0RMjDEqiKR9uA42Pi/a/wPhqtoWtWDdSwAAAABJRU5ErkJggg==;" vertex="1" parent="1">
          <mxGeometry x="560" y="116.07" width="48" height="47.17" as="geometry"/>
        </mxCell>
        <mxCell id="6lgJhgc5zSghXeEzX93S-5" value="末端客户" style="shape=image;verticalLabelPosition=bottom;labelBackgroundColor=#ffffff;verticalAlign=top;aspect=fixed;imageAspect=0;image=data:image/png,iVBORw0KGgoAAAANSUhEUgAAADQAAAA5CAYAAAB55gg1AAAMLElEQVRoBd1ZCWxVVRr+XlegpS2UrSgpwyJaQUEBcWEsuxQKEcpYyKAzYAshoEwJKIm17diSzAQRRlYFZBQNUXBANIBEBAIhIxhSU7Sl7MW2WLq81/b1tW+5k+/Hc3vf1lJomeqf3HfvO/ec//zf+ddzrknTNA2/Iwr4HWERKEG/BUBTEybhiYdj0T+mM/YeP4dVq9djwIABPkU3tXeT27kuHc8nPifCO62VaCi/CEtlGSx9kzB06FAvUO3a5NLT0/H8lAkI7dYfoT0eQFB4dwSERiC8cwQObk33AsOGdg2oIO8sXI56OG0WuGwWaI56aC4H4HJi4sPh+OWXX7xAtWsfstvtcFhKAIIICILTWgFnXaUAPHPRghin87cFaNacl2A3X4WzvloEdzXUwmEpBX3p6HkrkkJDvQC1+6CwZMpYvD5vMEwBQSAggvnxWhWGpv4b0dHRCAkJcQfFKNce6cCBA1pOdqZWV3NTKykp0YqKirTCQ/u1vLw8zWa1aHPn/tmn2PDZ2kaN+/bt01JTU5vlfuTIEa2qqkq/6mrLtbraCs1mrdJsVrMAslmrtZycbC9e9yTKVVRUYObMmejQoQPOnz/vbiIe/95//308/vjjMJlM+tXgCEKDI9CjJ7AsbSnmzZuHa9eu6e/aFNDBgwcFSH19PebPn49x48bpE/t7+OSTT/y9Qr3d5PVu08YN2LJls97eJoCURsaMGQMK2LFjR8THx+uT3s1Dvd179JtvvomrV6/Ki1YHdPr0aRw/fhwrV66E1WrFjRs3cOXKFQQGBqKmpkaiUkpKipuZeIr40UcfoaysTDc5o/nxucFxa4TTZYLD6YLd7sCWLVuksdUT67Bhw/Doo4/C5XLhq6++wuTJk9GrVy+cPHkSHU+sxMapHREcUYvA7/4Js3kCjl02gYvQ0NCAESNGiFAMx+Xl5ejRo4cnVv2/C/Spxp2P2WxuG0BqRmpmypQpsspsCwoKQoeIaARHRCI4+g8IjoiBs7YCzz47Q8yxc+fO0jcpKQmHDh1CZWWlPlbxVHdu4VhFkKciapTU6ianJigtLZVHrnxycrKU+3tuPoZ9P7oETEh0XwT3eUL6UECLxQKuMi9qOdRHFaB4r169Wh+n2giIVtEmgE6dOiWrm5aWhsLCQmzYsAE9e/bEW2+9hSX/2IWCwGFY/q/9OHXuupLH7U4wTQFy6/zrH5onAbV66fPGG29gwYIFYg7du3d3MwtfgrCNQePDDz/EuXPnMHjwYNHoxYsXMXr0aLchtbW1ElSioqJEowEBjfrIyMiQBWuTSqG+vt4rg99ug91u18rKyrT4+HitpqZGrvz8fO306dM6C/I3m82axWLRr7S0NOnb6hpyW9K7+MMc9uWXX0pwuP/++4UTw77TsGVgCD9z5gweeugheR8eHt56PrQkeVqT4k+fPl2i13vvvYfNmxszu69BO3bskOawsDAQjAoWRjAEx2DCMonPJImU1KMvprfbNnN6IqaNHY3kha/iu4Of4+ihA0h9LQM9Y/vLRATwyCOPYPz48aiqqkJdXZ2wzs7OBn3g3XffdZsqZXYC0p+LgqvBCrulBD1TDovgqhOT9Q8//IAnn3xSb8/Ly0O/fv0QExNzZ0FhVuJkzE4Yh4S/LpbkyUTap08fHD58WARnfrBXlKBoZzbuS0pDdUikPrkSzHjfu3cvunTpIom1a9V/4TCXwGkzo6HsAqKe34zq6mp8//33Ugty/Xkxoik6cuQIRo0a1XJAr/9lFiYnv4SRz44TM+DKqEhEMBMnThQN5ObmIi4uToSknf+U9Sd0eXkNTEHBSgavO7VVXFws5hjisKDG1oDps+aCZkezYiKlj/gCtGvXLkybNk0ANaZarykaG5ITxiNm0BAkpSyVpPftt9+ia9eueOaZZ0SI/Px8PP3001Ku3Lx5E0899ZQMZrXdt29fuOw1KMmegd6Z+xuZejxxxWmSHMtEvGzZMkyaNEl68R1rQX9kPCxpEtCWzGUoC+qC+X97TTTCczCqnpMy8TFvENjYsWMl+rBeY3SiiTC3xBz4O+zdgxA4wAWUQ/qycmA+Mboui1m2se578MEHhXf//v310sfY1xcoAlKA/QKiYGuHB+PSqFRxQDKirXIbwAloVpw0IiIC1Mr169fF5Lj3KdiWjo7aGQQ8xsTXaOuclFsJLgYBsO/SpUvxzjvviJw0KUYqEnkruh1Aqq7zC4jM4v6+Cw/YKlF37QRKdm/FiIkvy0qwEuaeh/Gf2qAvxf74H/x0/FUERJsQ1pWjvTdjFExtBbh7pYmxiGV08qSRI0fqTU0BosZZyDYJiMXfir61OsOgqGjc99IrsNsqkL98DAZmfC6m5XA4ULg2FT1sxbDHmRDgA4TOhLpyucQ0uWWmIIq4KEozqo1bDrYHB/sPJOxLc2Mdp8ogNw2VlJRIlGFReWHFLsXb7R6TsgDluVthPnoCWogV4f1oUt7acBvEsj60gxSqXO2mVtw4jsFmyJAhTfanliMjI3Uf0qu79evXi9oIpjkKCA9D5HN/RGCfRv/wN0a7EYwOvV9B4MsbRUO3C4b8ioqK/LHV26khFsFeQWHx4sWyEjQFOuugzN24sj0b3eKnIrDLLUfVuTTzQBCdHlsEa0yc9LxVGzQOoh9169atscHPEyNqQkKCn7e3mnmKxACiDhzdTI5d+IJ2WxcYiJ5zMyUiFebMQXjcYIQNG9Ykc+1qKMKm5aAuNBJWQyZXg7iK9JXm/EL15xaiOWJQYaWiSAfEHSYn69Spk7xjFCIxQ8cu3yFAr21didBBvYAw3VKlj6taQ3i3RNTNmo5aAvEAQ4dlvqJmWkIM7c0RfYj7I0U6INoiywzmFOMqcjUZEhmhjBoL7B0GrTIYUaOWorrHINSyrPcAQo3wwIO5h8TC8naIi8uN4u7du30GBKMfKh9SfHVAqoGhmHGdyY/mp4Th6vLZqDFur6sIwrBHIR8C6d27tx5KFW+lfVbcRqHUe97pw1z1jRs3Sh/KQ2KbL7+jFhVf9vMCJKMBCQwMDswFHECzoRlSWxTYZrO5Vbx8z++evsyKfIwA1CKpuYx3nq8tXLhQ+nMcwbMaYSQjDy6oyjkcR6sykrszGN/8evSk0NPkaDJqxVRXmiS3DgMHDvQJhv2obV5GsOSnjp4UL96XLFkix8Y8bORGjzlGEbWnwKSmpsppKc/CjeRTQ5ycWvBFXCXuHCkQNeKvn+dYgiFf0qVLl2SlPfuo/zww4cIdO3ZM9lsM3Zz36NGjUkPOmDEDa9euFcsxAuZ4L0BKI4q5uhsFYpu/fqq/rzt9joLxao5o2upwf+rUqRg+fLicJnEjx7k9gSh+OiDaNVfdk6iB280bnmPVf0YiBpo7JR6WcBEoX3MWoQOiD3CQqhSUedypEPQPVuSeRKdetWoVWGrNmTPH87Xf/7SQ5sBwsNsxljIF3hld6CstBcYCl6cwntomuM8++wwvvvgiYmNj8fbbb2P27NkSNbkf+uCDD/yCackLHRCT2aZNm5CZmelm51xRXqpW8secIZbbAk8g7J+VlYU1a9ZI2GcI5lcJ7ky56t98841s37lVZxK+W5KwvWjRIsk3/GzILwacXBH9h/7FySm0J1EbFy5ckC23EQw1TNMiSJoXN3E83yavPXv2CPCCggLRJvvS1Llwd0umwsJCjcxIFIglO09v1q1bh7Nnz0ouoAkqc+SkNEVqjFHLCII8fv75Z3z66adYvny5nPoQgLHWYh9+1WNByZzC8fwCxwN940ZNBLqDH1NWVpbGU82PP/5YTimpen54UttiAtm2bZvkhO3bt+vmyEpBfQbkvPQD1l8MqfQ7FqPNET+hqAJUzdfcmGbf8+B7//79WkFBgZabm6u98MILWmlpqX4wbnw4efKklpGRodlsNvnkrvrv3LlTKy4ulgN0Y///x7MEBZocj2RZZScmJkoR6C/3MIOz3OBnxMuXL4v50HToH+2B9CjXUmF4zEX64osvZCFaOr6t+rcYELXJqEbfYqXLA0U6NHNMe6Amq21fAq5YsULAqD0LTY0H7Z7RztfYe9HWYkAUimGbm60JEyaIhphHVLS6F0I3NUeLAbFsP3HihCRZaufrr79GTk6OfBloaqJ79a7FPqQE456GlQOTJpNsa5Qtivfd3P8HVRy2WyCFCygAAAAASUVORK5CYII=;" vertex="1" parent="1">
          <mxGeometry x="720" y="117" width="42" height="46.04" as="geometry"/>
        </mxCell>
        <mxCell id="6lgJhgc5zSghXeEzX93S-10" value="" style="shape=curlyBracket;whiteSpace=wrap;html=1;rounded=1;rotation=90;size=0.43333333333333335;fillColor=#f8cecc;strokeColor=#b85450;" vertex="1" parent="1">
          <mxGeometry x="325" y="-135" width="30" height="480" as="geometry"/>
        </mxCell>
        <mxCell id="6lgJhgc5zSghXeEzX93S-13" value="整车运输一般为装载大宗物资的直达运输，从原材料到产成品会产生至少5倍以上的运输量&lt;br&gt;&lt;div&gt;特点：规模大、数量大，运力闲置突出、浪费巨大&lt;/div&gt;&lt;div&gt;&lt;br&gt;&lt;/div&gt;" style="text;html=1;" vertex="1" parent="1">
          <mxGeometry x="80" y="50" width="500" height="30" as="geometry"/>
        </mxCell>
        <mxCell id="6lgJhgc5zSghXeEzX93S-14" value="" style="shape=curlyBracket;whiteSpace=wrap;html=1;rounded=1;rotation=-90;fillColor=#d80073;strokeColor=#A50040;fontColor=#ffffff;" vertex="1" parent="1">
          <mxGeometry x="652" y="105" width="20" height="190" as="geometry"/>
        </mxCell>
        <mxCell id="6lgJhgc5zSghXeEzX93S-15" value="&lt;div&gt;零担运输多为线路固定、方向单一的干线运输和末端配送&lt;/div&gt;&lt;div&gt;特点：货物体小量大，浪费比较少，利润空间低，市场饱和度高，竞争激烈，新规参入者较多&lt;br&gt;&lt;/div&gt;&lt;div&gt;&lt;br&gt;&lt;/div&gt;" style="text;html=1;align=center;verticalAlign=middle;resizable=0;points=[];;autosize=1;" vertex="1" parent="1">
          <mxGeometry x="465" y="210" width="510" height="50" as="geometry"/>
        </mxCell>
      </root>
    </mxGraphModel>
  </diagram>
</mxfile>
